<?xml version="1.0" encoding="UTF-8"?>
<svg width="66px" height="88px" viewBox="0 0 66 88" version="1.1" xmlns="http://www.w3.org/2000/svg" xmlns:xlink="http://www.w3.org/1999/xlink">
    <!-- Generator: Sketch 48.2 (47327) - http://www.bohemiancoding.com/sketch -->
    <title>noun_604175_cc</title>
    <desc>Created with Sketch.</desc>
    <defs></defs>
    <g id="Page-1" stroke="none" stroke-width="1" fill="none" fill-rule="evenodd">
        <g id="noun_604175_cc" transform="translate(0.000000, -1.000000)" fill="#000000" fill-rule="nonzero">
            <g id="Group" transform="translate(0.000000, 0.637820)">
                <path d="M1.8125,0.36218 C0.781788833,0.459321567 -0.00446401893,1.32691092 -5.1070293e-15,2.36218 L-1.55431562e-15,86.36218 C0.000110435811,87.4667038 0.895476248,88.3620696 2,88.36218 L64,88.36218 C65.1045238,88.3620696 65.9998896,87.4667038 66,86.36218 L66,18.36218 C66.0041082,17.8225357 65.7899836,17.3041287 65.40625,16.92468 L49.40625,0.92468 C49.0293551,0.560095875 48.5243612,0.358098332 48,0.36218 L2,0.36218 C1.93753436,0.359248995 1.87496564,0.359248995 1.8125,0.36218 Z M4,4.36218 L46,4.36218 L46,18.36218 C46.000105,19.40935 46.952831,20.36208 48,20.36218 L62,20.36218 L62,84.36218 L4,84.36218 L4,4.36218 Z M50,7.17468 L59.1875,16.36218 L50,16.36218 L50,7.17468 Z M10.8125,34.36218 C10.0978668,34.3955352 9.4553308,34.8076582 9.12698541,35.44327 C8.79864002,36.0788819 8.83438264,36.8413911 9.22074624,37.443501 C9.60710983,38.0456109 10.2853802,38.395821 11,38.36218 L35,38.36218 C35.7212718,38.3723806 36.3921627,37.9934294 36.7557754,37.3704343 C37.1193882,36.7474392 37.1193882,35.9769208 36.7557754,35.3539257 C36.3921627,34.7309306 35.7212718,34.3519794 35,34.36218 L11,34.36218 C10.9375344,34.359249 10.8749656,34.359249 10.8125,34.36218 Z M10.8125,45.36218 C10.0978668,45.3955352 9.4553308,45.8076582 9.12698541,46.44327 C8.79864002,47.0788819 8.83438264,47.8413911 9.22074624,48.443501 C9.60710983,49.0456109 10.2853802,49.395821 11,49.36218 L55,49.36218 C55.7212718,49.3723806 56.3921627,48.9934294 56.7557754,48.3704343 C57.1193882,47.7474392 57.1193882,46.9769208 56.7557754,46.3539257 C56.3921627,45.7309306 55.7212718,45.3519794 55,45.36218 L11,45.36218 C10.9375344,45.359249 10.8749656,45.359249 10.8125,45.36218 Z M10.8125,56.36218 C10.0978668,56.3955352 9.4553308,56.8076582 9.12698541,57.44327 C8.79864002,58.0788819 8.83438264,58.8413911 9.22074624,59.443501 C9.60710983,60.0456109 10.2853802,60.395821 11,60.36218 L55,60.36218 C55.7212718,60.3723806 56.3921627,59.9934294 56.7557754,59.3704343 C57.1193882,58.7474392 57.1193882,57.9769208 56.7557754,57.3539257 C56.3921627,56.7309306 55.7212718,56.3519794 55,56.36218 L11,56.36218 C10.9375344,56.359249 10.8749656,56.359249 10.8125,56.36218 Z M10.8125,67.36218 C10.0978668,67.3955352 9.4553308,67.8076582 9.12698541,68.44327 C8.79864002,69.0788819 8.83438264,69.8413911 9.22074624,70.443501 C9.60710983,71.0456109 10.2853802,71.395821 11,71.36218 L55,71.36218 C55.7212718,71.3723806 56.3921627,70.9934294 56.7557754,70.3704343 C57.1193882,69.7474392 57.1193882,68.9769208 56.7557754,68.3539257 C56.3921627,67.7309306 55.7212718,67.3519794 55,67.36218 L11,67.36218 C10.9375344,67.359249 10.8749656,67.359249 10.8125,67.36218 Z" id="Shape"></path>
            </g>
        </g>
    </g>
</svg>