<?xml version="1.0" encoding="UTF-8"?>
<svg width="90px" height="90px" viewBox="0 0 90 90" version="1.1" xmlns="http://www.w3.org/2000/svg" xmlns:xlink="http://www.w3.org/1999/xlink">
    <!-- Generator: Sketch 48.2 (47327) - http://www.bohemiancoding.com/sketch -->
    <title>noun_890665_cc</title>
    <desc>Created with Sketch.</desc>
    <defs></defs>
    <g id="Page-1" stroke="none" stroke-width="1" fill="none" fill-rule="evenodd">
        <g id="noun_890665_cc" transform="translate(0.000000, -1.000000)" fill="#000000" fill-rule="nonzero">
            <g id="Group" transform="translate(0.000000, 0.637820)">
                <path d="M45,0.36218 C20.1708,0.36218 4.99999999e-07,20.53998 4.99999999e-07,45.3778 C4.99999999e-07,70.2155 20.1708,90.3622 45,90.3622 C69.829099,90.3622 90,70.2155 90,45.3778 C90,20.53998 69.829099,0.36218 45,0.36218 Z M45,4.33238 C67.6673,4.33238 85.968699,22.70258 85.968699,45.3778 C85.968699,68.053 67.6673,86.392 45,86.392 C22.3326,86.392 4.0312005,68.053 4.0312005,45.3778 C4.0312005,22.70258 22.3326,4.33238 45,4.33238 Z M27.6875,23.90158 C26.8652,24.47298 26.0439,25.07548 25.2812,25.62098 C24.3038,25.57298 23.2309,25.35988 22.375,25.30848 C20.489401,25.20188 17.9243,25.46908 16.125,27.49678 C14.7691,29.75518 14.5832,32.73108 15.4687,34.74928 C16.4574,36.90018 18.1708,38.71738 20.0312,40.28238 C21.8916,41.84768 23.9232,43.1303 25.6875,44.0337 C27.279201,44.8233 29.2472,45.6801 30.5625,45.3468 C32.269,44.723 33.2892,43.1149 34.1562,41.78298 C35.2341,40.11838 36.3509,37.97278 37.1875,35.68708 C38.024,33.40148 38.6015,30.97758 38.4062,28.62218 C38.2109,26.26678 36.961601,23.85378 34.5,22.71388 C32.163201,21.87878 29.5969,22.67388 27.6875,23.90158 Z M55.5937,22.71388 C53.1057,23.83388 51.8125,26.26498 51.5937,28.62218 C51.3749,30.97938 51.9524,33.40118 52.7812,35.68708 C53.61,37.97308 54.7049,40.08678 55.7812,41.75168 C56.7748,43.2243 58.065601,44.9455 59.375,45.3155 C61.152,45.6179 62.8432,44.7483 64.25,44.0337 C66.015501,43.1313 68.0392,41.84358 69.906199,40.28238 C71.7732,38.72148 73.491799,36.91818 74.5,34.78048 C75.508099,32.64308 75.624399,29.90288 74.0625,27.68438 C72.406099,25.92228 69.7497,25.21048 67.5625,25.30848 C66.5638,25.39348 65.5559,25.52498 64.625,25.62098 C63.8103,25.07778 62.997601,24.34428 62.2812,23.87028 C59.8838,22.48878 58.0192,22.04748 55.5937,22.71388 Z M32.9375,26.43398 C33.945801,26.95288 34.2948,27.62268 34.4062,28.96618 C34.5236,30.38158 34.152,32.35938 33.4375,34.31178 C32.722901,36.26408 31.6913,38.18918 30.7812,39.59488 C30.4293,40.21558 29.916,40.81178 29.5,41.31368 C28.8119,41.17388 28.067,40.75748 27.5313,40.50088 C26.0434,39.73888 24.210101,38.55198 22.625,37.21858 C21.039901,35.88478 19.7139,34.37328 19.125,33.09208 C18.5676,31.87938 18.5512,31.09088 19.187,30.12228 C19.8278,29.44628 20.8258,29.23428 22.1558,29.30948 C23.6795,29.42448 25.3372,29.84988 26.3433,29.59058 C27.7551,29.08738 28.7269,28.05758 29.8433,27.24598 C30.8551,26.51898 31.833,26.32618 32.937,26.43398 L32.9375,26.43398 Z M60.0937,27.21528 C61.352001,28.09298 62.5747,29.30628 63.5937,29.59108 C65.065601,29.83178 66.3986,29.43448 67.7812,29.30928 C69.1087,29.23828 70.162599,29.41958 70.875,30.12208 C71.482799,31.07168 71.448199,31.84518 70.875,33.06058 C70.269099,34.34528 68.9384,35.88478 67.3437,37.21838 C65.749,38.55168 63.8969,39.70738 62.4062,40.46948 C61.7974,40.83448 61.0405,41.07568 60.4375,41.28218 C59.921001,40.79058 59.492901,40.08728 59.1563,39.59458 C58.2486,38.19028 57.237401,36.25908 56.5313,34.31148 C55.825101,32.36378 55.4322,30.36978 55.5625,28.96588 C55.686401,27.63128 56.0482,26.95508 57.0938,26.43368 C58.1677,26.17088 59.3322,26.72238 60.0937,27.21528 Z M15.9375,51.8175 C16.7125,59.3993 20.2534,66.93 24.125,71.6681 C28.9962,77.4943 36.320801,82.3862 45.9687,82.3906 C55.6471,82.4006 62.5725,77.4322 66.9687,71.5744 C71.205599,65.4828 73.479699,58.8891 74.343699,51.8175 C53.816,54.2822 34.3956,55.8496 15.9375,51.8175 Z M20.7187,56.8193 C36.8373,60.0366 53.236501,60.0409 69.3125,56.8503 C68.9688,58.3306 68.4862,59.9697 67.8437,61.6644 C51.7163,67.2664 38.6651,67.3209 22.5937,61.8207 C21.7558,60.0339 21.1192,58.3144 20.7187,56.819 L20.7187,56.8193 Z" id="Shape"></path>
            </g>
        </g>
    </g>
</svg>