<?xml version="1.0" encoding="UTF-8"?>
<svg width="63px" height="63px" viewBox="0 0 63 63" version="1.1" xmlns="http://www.w3.org/2000/svg" xmlns:xlink="http://www.w3.org/1999/xlink">
    <!-- Generator: Sketch 48.2 (47327) - http://www.bohemiancoding.com/sketch -->
    <title>noun_321684_cc</title>
    <desc>Created with Sketch.</desc>
    <defs></defs>
    <g id="Page-1" stroke="none" stroke-width="1" fill="none" fill-rule="evenodd">
        <g id="noun_321684_cc" fill="#000000">
            <path d="M31.160156,0.009765625 C26.639649,0.009765625 22.29009,0.96495412 18.21875,2.8300781 C17.52869,2.0272894 16.976621,1.449857 16.8125,1.2851562 C16.5265,0.99915625 16.177375,0.83370312 15.734375,0.84570312 C15.330375,0.84970312 14.946969,1.0165937 14.667969,1.3085938 C14.502718,1.4802309 11.371185,4.7903796 9.7734375,8.5488281 C9.7009733,8.5974228 9.6295144,8.650227 9.5644531,8.7128906 C3.4044531,14.642891 0.013671875,22.615063 0.013671875,31.164062 C0.013671875,48.342062 13.985156,62.318359 31.160156,62.318359 C48.334156,62.318359 62.306641,48.342062 62.306641,31.164062 C62.306641,13.985063 48.334156,0.009765625 31.160156,0.009765625 Z M31.160156,3.0117188 C46.681156,3.0117188 59.306641,15.640063 59.306641,31.164062 C59.306641,46.688062 46.681156,59.318359 31.160156,59.318359 C15.640156,59.318359 3.0136719,46.688062 3.0136719,31.164062 C3.0136719,24.843336 5.0667633,18.873799 8.8613281,13.976562 C9.0014507,15.227 9.4264564,16.265801 10.134766,17.080078 C11.314766,18.438078 13.151953,19.099609 15.751953,19.099609 C18.372953,19.099609 20.320969,18.402297 21.542969,17.029297 C22.713969,15.712297 23.165672,13.844656 22.888672,11.472656 C22.639342,9.3545278 21.404447,7.1188732 20.111328,5.2695312 C23.602692,3.774105 27.312196,3.0117188 31.160156,3.0117188 Z M15.78125,4.59375 C17.37825,6.44075 19.63425,9.4972656 19.90625,11.822266 C20.08125,13.306266 19.876781,14.387156 19.300781,15.035156 C18.672781,15.741156 17.478953,16.097656 15.751953,16.097656 C14.095953,16.097656 12.966484,15.765328 12.396484,15.111328 C11.849484,14.481328 11.681531,13.387469 11.894531,11.855469 C12.262531,9.2294688 14.44225,6.22575 15.78125,4.59375 Z M18.228516,22.728516 C17.399516,22.728516 16.728516,23.399516 16.728516,24.228516 C16.728516,25.057516 17.399516,25.728516 18.228516,25.728516 C20.154516,25.728516 21.78125,27.428453 21.78125,29.439453 C21.78125,30.268453 22.45325,30.939453 23.28125,30.939453 C24.10925,30.939453 24.78125,30.268453 24.78125,29.439453 C24.78125,25.802453 21.780516,22.728516 18.228516,22.728516 Z M43.763672,22.806641 C40.127672,22.806641 37.056641,25.807328 37.056641,29.361328 C37.056641,30.190328 37.727641,30.861328 38.556641,30.861328 C39.384641,30.861328 40.056641,30.190328 40.056641,29.361328 C40.056641,27.433328 41.753672,25.806641 43.763672,25.806641 C44.591672,25.806641 45.263672,25.135641 45.263672,24.306641 C45.263672,23.477641 44.591672,22.806641 43.763672,22.806641 Z M29.828125,37.787109 C23.401125,37.787109 18.367188,42.690266 18.367188,48.947266 C18.367188,49.775266 19.039188,50.447266 19.867188,50.447266 C20.695188,50.447266 21.367188,49.775266 21.367188,48.947266 C21.367188,44.372266 25.083125,40.789062 29.828125,40.789062 L34.810547,40.789062 C39.555547,40.789063 43.271484,44.439609 43.271484,49.099609 C43.271484,49.928609 43.943484,50.599609 44.771484,50.599609 C45.600484,50.599609 46.271484,49.928609 46.271484,49.099609 C46.271484,42.862609 41.130547,37.787109 34.810547,37.787109 L29.828125,37.787109 Z" id="Shape"></path>
        </g>
    </g>
</svg>